# xmcd CD database file
#
# Track frame offsets:
#	150
#	18430
#	34907
#	50432
#	65577
#	83352
#	98792
#	120598
#	137873
#	157535
#	176280
#	194027
#
# Disc length: 2834 seconds
#
# Revision: 0
# Processed by: cddbd v1.5.2PL0 Copyright (c) Steve Scherf et al.
# Submitted via: CDex 1.84
#
DISCID=930b100c
DTITLE=Reba McEntire - Sing It Now
DYEAR=2017
DGENRE=Country
TTITLE0=Sing It Now
TTITLE1=Angels Singin'
TTITLE2=God And My Girlfriends
TTITLE3=Hallelujah, Amen
TTITLE4=There Is A God
TTITLE5=I Got Rhe Lord On My Side
TTITLE6=Back To God
TTITLE7=Angel On My Shoulder
TTITLE8=From The Inside Out
TTITLE9=Say a Prayer
TTITLE10=I Need To Talk To You
TTITLE11=Meanwhile Back At The Cross
EXTD=YEAR: 2017
EXTT0=
EXTT1=
EXTT2=
EXTT3=
EXTT4=
EXTT5=
EXTT6=
EXTT7=
EXTT8=
EXTT9=
EXTT10=
EXTT11=
PLAYORDER=
